<svg width="16" height="17" viewBox="0 0 16 17" fill="none" xmlns="http://www.w3.org/2000/svg">
<path d="M10.0228 12.2136C9.79679 12.5894 9.66683 13.0295 9.66683 13.5C9.66683 14.8807 10.7861 16 12.1668 16C13.5475 16 14.6668 14.8807 14.6668 13.5C14.6668 12.1193 13.5475 11 12.1668 11C11.2566 11 10.46 11.4865 10.0228 12.2136ZM10.0228 12.2136L5.97755 9.78643M5.97755 9.78643C6.20353 9.4106 6.3335 8.97048 6.3335 8.5C6.3335 8.02952 6.20353 7.5894 5.97755 7.21357M5.97755 9.78643C5.54034 10.5135 4.74373 11 3.8335 11C2.45278 11 1.3335 9.88071 1.3335 8.5C1.3335 7.11929 2.45278 6 3.8335 6C4.74373 6 5.54034 6.48645 5.97755 7.21357M5.97755 7.21357L10.0228 4.78643M10.0228 4.78643C10.46 5.51355 11.2566 6 12.1668 6C13.5475 6 14.6668 4.88071 14.6668 3.5C14.6668 2.11929 13.5475 1 12.1668 1C10.7861 1 9.66683 2.11929 9.66683 3.5C9.66683 3.97048 9.79679 4.4106 10.0228 4.78643Z" stroke="#9098A6" stroke-width="1.5" stroke-linecap="round" stroke-linejoin="round"/>
</svg>
