<svg width="16" height="16" viewBox="0 0 16 16" fill="none" xmlns="http://www.w3.org/2000/svg">
<path fill-rule="evenodd" clip-rule="evenodd" d="M1.3335 8.00004C1.3335 4.31814 4.31826 1.33337 8.00016 1.33337C11.6821 1.33337 14.6668 4.31814 14.6668 8.00004C14.6668 11.6819 11.6821 14.6667 8.00016 14.6667C4.31826 14.6667 1.3335 11.6819 1.3335 8.00004ZM8.00016 4.66671C7.63197 4.66671 7.3335 4.96518 7.3335 5.33337C7.3335 5.70156 7.63197 6.00004 8.00016 6.00004H8.00683C8.37502 6.00004 8.6735 5.70156 8.6735 5.33337C8.6735 4.96518 8.37502 4.66671 8.00683 4.66671H8.00016ZM8.66683 8.00004C8.66683 7.63185 8.36835 7.33337 8.00016 7.33337C7.63197 7.33337 7.3335 7.63185 7.3335 8.00004V10.6667C7.3335 11.0349 7.63197 11.3334 8.00016 11.3334C8.36835 11.3334 8.66683 11.0349 8.66683 10.6667V8.00004Z" fill="#9098A6"/>
</svg>
